<svg id="eEskNgmDpx01" xmlns="http://www.w3.org/2000/svg" xmlns:xlink="http://www.w3.org/1999/xlink" viewBox="0 0 1764 1351" shape-rendering="geometricPrecision" text-rendering="geometricPrecision" width="1764" height="1351"><defs><path id="eEskNgmDpx02" d="M6.23,0.067v5.623h-5.62v-5.624h5.62Z"/><path id="eEskNgmDpx03" d="M0.67,0.697h9.937v9.938h-9.937Z"/><path id="eEskNgmDpx04" d="M6.23,0.067v5.623h-5.62v-5.624h5.62Z"/></defs><g><path style="mix-blend-mode:lighten" d="M717.978,92.117l2.756,1.507c.12567.069316.203708.201482.203708.345s-.078038.275684-.203708.345l-2.756,1.508c-.065596.036348-.119652.090404-.156.156l-1.507,2.756c-.068871.126242-.201194.204787-.345.204787s-.276129-.078545-.345-.204787l-1.508-2.755c-.035784-.067375-.090314-.122947-.157-.16l-2.755-1.505c-.12567-.069316-.203708-.201482-.203708-.345s.078038-.275684.203708-.345l2.755-1.508c.066336-.036155.120845-.090664.157-.157l1.507-2.754c.068871-.126242.201194-.204787.345-.204787s.276129.078545.345.204787l1.508,2.754c.036.067.09.12.156.157" fill="#d15d64" fill-rule="evenodd"/><path style="mix-blend-mode:lighten" d="M239.057,166.72l1.36.745c.126115.069454.204451.202025.204451.346s-.078336.276546-.204451.346l-1.36.743c-.065732.036619-.119802.091036-.156.157l-.743,1.36c-.069008.126688-.201736.205532-.346.205532s-.276992-.078844-.346-.205532l-.743-1.36c-.036246-.066268-.090732-.120754-.157-.157l-1.36-.743c-.126115-.069454-.204451-.202025-.204451-.346s.078336-.276546.204451-.346l1.36-.744c.06606-.035616.12054-.089402.157-.155l.743-1.36c.069454-.126115.202025-.204451.346-.204451s.276546.078336.346.204451l.744,1.36c.037.066.092.12.157.156" fill="#fcd05c" fill-rule="evenodd"/><path d="M409.472,108L408,109.47m5.47-5.47L412,105.472m-2.457,2.691c.468018.468018,1.150169.6508,1.789493.479493s1.138694-.670675,1.31-1.31-.011475-1.321475-.479493-1.789493-1.150169-.6508-1.789493-.479493-1.138694.670675-1.31,1.31.011475,1.321475.479493,1.789493Z" fill="none" fill-rule="evenodd" stroke="#7b63ab" stroke-width="1.097" stroke-linecap="round" stroke-linejoin="round"/><path style="mix-blend-mode:lighten" d="M961.978,138.117l2.756,1.507c.12567.069316.203708.201482.203708.345s-.078038.275684-.203708.345l-2.756,1.507c-.066144.03743-.120256.09293-.156.16l-1.507,2.754c-.068871.126242-.201194.204787-.345.204787s-.276129-.078545-.345-.204787l-1.508-2.756c-.036246-.066268-.090732-.120754-.157-.157l-2.755-1.505c-.12567-.069316-.203708-.201482-.203708-.345s.078038-.275684.203708-.345l2.755-1.508c.066197-.035886.120692-.090033.157-.156l1.507-2.755c.068871-.126242.201194-.204787.345-.204787s.276129.078545.345.204787l1.508,2.755c.036.066.09.12.156.156" fill="#d15d64" fill-rule="evenodd"/><path style="mix-blend-mode:lighten" d="M1144.978,177.117l2.755,1.507c.12567.069316.203708.201482.203708.345s-.078038.275684-.203708.345l-2.755,1.508c-.065694.036217-.119783.090306-.156.156l-1.506,2.756c-.068552.127271-.201441.206632-.346.206632s-.277448-.079361-.346-.206632l-1.506-2.756c-.037518-.066076-.092995-.120166-.16-.156l-2.753-1.507c-.126242-.068871-.204787-.201194-.204787-.345s.078545-.276129.204787-.345l2.755-1.508c.066268-.036136.121023-.090198.158-.156l1.506-2.755c.069316-.12567.201482-.203708.345-.203708s.275684.078038.345.203708l1.508,2.756c.037.066.09.12.157.157" fill="#e98333" fill-rule="evenodd"/><path style="mix-blend-mode:lighten" d="M1083.057,100.72l1.36.745c.126115.069454.204451.202025.204451.346s-.078336.276546-.204451.346l-1.36.743c-.065732.036619-.119802.091036-.156.157l-.743,1.36c-.069008.126688-.201736.205532-.346.205532s-.276992-.078844-.346-.205532l-.743-1.36c-.036246-.066268-.090732-.120754-.157-.157l-1.36-.743c-.126115-.069454-.204451-.202025-.204451-.346s.078336-.276546.204451-.346l1.36-.744c.06606-.035616.12054-.089402.157-.155l.743-1.36c.069454-.126115.202025-.204451.346-.204451s.276546.078336.346.204451l.744,1.36c.037.066.092.12.157.156" fill="#fcd05c" fill-rule="evenodd"/><path style="mix-blend-mode:lighten" d="M1206.813,253.907c-.000828,1.605768-1.303232,2.906828-2.909,2.906s-2.906828-1.303232-2.906-2.909s1.303232-2.906828,2.909-2.906s2.906828,1.303232,2.906,2.909M114.978,319.116l2.756,1.507c.126688.069008.205532.201736.205532.346s-.078844.276992-.205532.346l-2.756,1.507c-.065596.036348-.119652.090404-.156.156l-1.507,2.755c-.068871.126242-.201194.204787-.345.204787s-.276129-.078545-.345-.204787l-1.508-2.755c-.036398-.065899-.09087-.120024-.157-.156l-2.755-1.507c-.126688-.069008-.205532-.201736-.205532-.346s.078844-.276992.205532-.346l2.755-1.507c.06606-.035616.12054-.089402.157-.155l1.507-2.755c.068871-.126242.201194-.204787.345-.204787s.276129.078545.345.204787l1.508,2.756c.036.067.09.12.156.156" fill="#d15d64" fill-rule="evenodd"/><path style="mix-blend-mode:lighten" d="M206.057,452.72l1.36.745c.126115.069454.204451.202025.204451.346s-.078336.276546-.204451.346l-1.36.743c-.065732.036619-.119802.091036-.156.157l-.743,1.36c-.069008.126688-.201736.205532-.346.205532s-.276992-.078844-.346-.205532l-.743-1.36c-.036246-.066268-.090732-.120754-.157-.157l-1.36-.743c-.126115-.069454-.204451-.202025-.204451-.346s.078336-.276546.204451-.346l1.36-.744c.06606-.035616.12054-.089402.157-.155l.743-1.36c.069454-.126115.202025-.204451.346-.204451s.276546.078336.346.204451l.744,1.36c.037.066.092.12.157.156" fill="#fcd05c" fill-rule="evenodd"/><path style="mix-blend-mode:lighten" d="M1661.978,527.116l2.755,1.508c.126115.069454.204451.202025.204451.346s-.078336.276546-.204451.346l-2.755,1.506c-.06607.036171-.120252.0907-.156.157l-1.506,2.754c-.068552.127271-.201441.206632-.346.206632s-.277448-.079361-.346-.206632l-1.506-2.755c-.036664-.067233-.092311-.122184-.16-.158l-2.753-1.506c-.126688-.069008-.205532-.201736-.205532-.346s.078844-.276992.205532-.346l2.755-1.508c.06653-.035324.121407-.089159.158-.155l1.506-2.755c.068871-.126242.201194-.204787.345-.204787s.276129.078545.345.204787l1.508,2.755c.036171.06607.0907.120252.157.156m-285.102-426.47l1.3.71c.26.144.26.52,0,.66l-1.3.713c-.062952.034206-.114952.085513-.15.148l-.71,1.3c-.066359.120132-.192759.194712-.33.194712s-.263641-.07458-.33-.194712l-.71-1.3c-.035849-.062562-.088505-.113832-.152-.148l-1.3-.712c-.120132-.066359-.194712-.192759-.194712-.33s.07458-.263641.194712-.33l1.3-.71c.062899-.03518.11482-.087101.15-.15l.71-1.3c.065598-.121731.192719-.197632.331-.197632s.265402.075901.331.197632l.71,1.3c.034923.063093.086907.115077.15.15" fill="#d15d64" fill-rule="evenodd"/><path style="mix-blend-mode:lighten" d="M1634.057,382.72l1.36.745c.126115.069454.204451.202025.204451.346s-.078336.276546-.204451.346l-1.36.743c-.065732.036619-.119802.091036-.156.157l-.743,1.36c-.069008.126688-.201736.205532-.346.205532s-.276992-.078844-.346-.205532l-.743-1.36c-.036246-.066268-.090732-.120754-.157-.157l-1.36-.743c-.126115-.069454-.204451-.202025-.204451-.346s.078336-.276546.204451-.346l1.36-.744c.06606-.035616.12054-.089402.157-.155l.743-1.36c.069454-.126115.202025-.204451.346-.204451s.276546.078336.346.204451l.744,1.36c.037.066.092.12.157.156" fill="#fcd05c" fill-rule="evenodd"/><path d="M411,385.888l3.554-.888-.887,3.554Z" fill="none" fill-rule="evenodd" stroke="#e98333" stroke-width="1.097" stroke-linecap="round" stroke-linejoin="round"/><path style="mix-blend-mode:lighten" d="M522.226,503.018l2.018,1.104-2.018,1.103-1.104,2.018-1.104-2.018L518,504.122l2.018-1.104L521.122,501Z" fill="#00a959" fill-rule="evenodd"/><path style="mix-blend-mode:lighten" d="M530.98,40.117l2.754,1.507c.12567.069316.203708.201482.203708.345s-.078038.275684-.203708.345l-2.755,1.508c-.066432.035914-.121243.090031-.158.156l-1.506,2.756c-.068552.127271-.201441.206632-.346.206632s-.277448-.079361-.346-.206632l-1.507-2.756c-.036706-.065666-.091101-.119714-.157-.156l-2.755-1.507c-.126242-.068871-.204787-.201194-.204787-.345s.078545-.276129.204787-.345l2.755-1.508c.065899-.036286.120294-.090334.157-.156l1.508-2.755c.069316-.12567.201482-.203708.345-.203708s.275684.078038.345.203708l1.507,2.756c.037.066.09.12.157.157" fill="#e98333" fill-rule="evenodd"/><path d="M653.86,202.256l-.847-1.6c-.040954-.076425-.103575-.139046-.18-.18l-1.6-.848c-.142534-.075067-.231763-.222907-.231763-.384s.089229-.308933.231763-.384l1.6-.847c.076353-.04105.13895-.103647.18-.18l.847-1.6c.0752-.142984.223447-.232515.385-.232515s.3098.089531.385.232515l.845,1.6c.040954.076425.103575.139046.18.18l1.6.847c.31.163.31.605,0,.768l-1.6.847c-.07657.040759-.139241.10343-.18.18l-.846,1.6c-.0752.142984-.223447.232515-.385.232515s-.3098-.089531-.385-.232515Z" fill="none" fill-rule="evenodd" stroke="#7b63ab" stroke-width="1.097" stroke-linecap="round" stroke-linejoin="round"/><path style="mix-blend-mode:lighten" d="M593.978,161.117l2.756,1.507c.12567.069316.203708.201482.203708.345s-.078038.275684-.203708.345l-2.756,1.507c-.066144.03743-.120256.09293-.156.16l-1.507,2.754c-.068871.126242-.201194.204787-.345.204787s-.276129-.078545-.345-.204787l-1.508-2.756c-.036246-.066268-.090732-.120754-.157-.157l-2.755-1.505c-.12567-.069316-.203708-.201482-.203708-.345s.078038-.275684.203708-.345l2.755-1.508c.066197-.035886.120692-.090033.157-.156l1.507-2.755c.068871-.126242.201194-.204787.345-.204787s.276129.078545.345.204787l1.508,2.755c.036.066.09.12.156.156" fill="#d15d64" fill-rule="evenodd"/><path style="mix-blend-mode:lighten" d="M177.98,127.117l2.754,1.507c.12567.069316.203708.201482.203708.345s-.078038.275684-.203708.345l-2.756,1.508c-.065694.036217-.119783.090306-.156.156l-1.507,2.756c-.068871.126242-.201194.204787-.345.204787s-.276129-.078545-.345-.204787l-1.507-2.756c-.037518-.066076-.092995-.120166-.16-.156l-2.752-1.507c-.126242-.068871-.204787-.201194-.204787-.345s.078545-.276129.204787-.345l2.754-1.508c.065899-.036286.120294-.090334.157-.156l1.508-2.755c.069316-.12567.201482-.203708.345-.203708s.275684.078038.345.203708l1.507,2.756c.036.066.09.12.156.157" fill="#e98333" fill-rule="evenodd"/><path style="mix-blend-mode:lighten" d="M299.813,56.907c-.000536,1.03875-.555197,1.998308-1.455049,2.517219s-2.008184.518339-2.9075-.0015-1.452987-1.479969-1.452451-2.518719c.000828-1.605768,1.303232-2.906828,2.909-2.906s2.906828,1.303232,2.906,2.909" fill="#d15d64" fill-rule="evenodd"/><path d="M50.86,205.256l-.847-1.6c-.040954-.076425-.103575-.139046-.18-.18l-1.6-.848c-.142534-.075067-.231763-.222907-.231763-.384s.089229-.308933.231763-.384l1.6-.847c.076353-.04105.13895-.103647.18-.18l.847-1.6c.0752-.142984.223447-.232515.385-.232515s.3098.089531.385.232515l.845,1.6c.040954.076425.103575.139046.18.18l1.6.847c.31.163.31.605,0,.768l-1.6.847c-.07657.040759-.139241.10343-.18.18l-.846,1.6c-.0752.142984-.223447.232515-.385.232515s-.3098-.089531-.385-.232515Z" fill="none" fill-rule="evenodd" stroke="#7b63ab" stroke-width="1.097" stroke-linecap="round" stroke-linejoin="round"/><path style="mix-blend-mode:lighten" d="M1690.978,261.116l2.755,1.507c.126115.069454.204451.202025.204451.346s-.078336.276546-.204451.346l-2.755,1.507c-.065931.035902-.120098.090069-.156.156l-1.506,2.755c-.068552.127271-.201441.206632-.346.206632s-.277448-.079361-.346-.206632l-1.506-2.755c-.036975-.066493-.092592-.12072-.16-.156l-2.753-1.507c-.126688-.069008-.205532-.201736-.205532-.346s.078844-.276992.205532-.346l2.755-1.507c.06653-.035324.121407-.089159.158-.155l1.506-2.755c.068871-.126242.201194-.204787.345-.204787s.276129.078545.345.204787l1.508,2.756c.036171.06607.0907.120252.157.156" fill="#d15d64" fill-rule="evenodd"/><path style="mix-blend-mode:lighten" d="M1637.057,223.722l1.36.743c.126115.069454.204451.202025.204451.346s-.078336.276546-.204451.346l-1.36.744c-.065831.036487-.119934.090937-.156.157l-.743,1.36c-.069454.126115-.202025.204451-.346.204451s-.276546-.078336-.346-.204451l-.743-1.36c-.036308-.065967-.090803-.120114-.157-.156l-1.36-.743c-.126115-.069454-.204451-.202025-.204451-.346s.078336-.276546.204451-.346l1.36-.743c.066268-.036246.120754-.090732.157-.157l.743-1.36c.069454-.126115.202025-.204451.346-.204451s.276546.078336.346.204451l.744,1.36c.036469.0661.0909.120531.157.157" fill="#7b63ab" fill-rule="evenodd"/><path style="mix-blend-mode:lighten" d="M1611.877,48.645l1.3.71c.26.145.26.52,0,.662l-1.3.71c-.063225.034747-.115253.086775-.15.15l-.71,1.3c-.066359.120132-.192759.194712-.33.194712s-.263641-.07458-.33-.194712l-.71-1.3c-.035552-.063299-.088235-.115289-.152-.15l-1.3-.71c-.121149-.066052-.196534-.193014-.196534-.331s.075385-.264948.196534-.331l1.3-.71c.062899-.03518.11482-.087101.15-.15l.71-1.298c.065598-.121731.192719-.197632.331-.197632s.265402.075901.331.197632l.71,1.298c.034923.063093.086907.115077.15.15" fill="#d15d64" fill-rule="evenodd"/><path style="mix-blend-mode:lighten" d="M1663.057,116.72l1.36.745c.126115.069454.204451.202025.204451.346s-.078336.276546-.204451.346l-1.36.743c-.065732.036619-.119802.091036-.156.157l-.743,1.36c-.069008.126688-.201736.205532-.346.205532s-.276992-.078844-.346-.205532l-.743-1.36c-.036246-.066268-.090732-.120754-.157-.157l-1.36-.743c-.126115-.069454-.204451-.202025-.204451-.346s.078336-.276546.204451-.346l1.36-.744c.06606-.035616.12054-.089402.157-.155l.743-1.36c.069454-.126115.202025-.204451.346-.204451s.276546.078336.346.204451l.744,1.36c.037.066.092.12.157.156" fill="#fcd05c" fill-rule="evenodd"/><g transform="translate(1580 434)"><g mask="url(#eEskNgmDpx031)"><path d="M4.667,1.79l1.36.743c.126688.069008.205532.201736.205532.346s-.078844.276992-.205532.346l-1.36.743c-.065964.036198-.120381.090268-.157.156l-.743,1.36c-.069008.126688-.201736.205532-.346.205532s-.276992-.078844-.346-.205532l-.744-1.36c-.035946-.065558-.089675-.119633-.155-.156l-1.36-.743c-.126115-.069454-.204451-.202025-.204451-.346s.078336-.276546.204451-.346l1.36-.744c.06607-.036171.120252-.0907.156-.157l.745-1.36c.069008-.126688.201736-.205532.346-.205532s.276992.078844.346.205532l.743,1.36c.036.066.09.12.157.156" fill="#7b63ab" fill-rule="evenodd"/><mask id="eEskNgmDpx031" mask-type="luminance"><use width="5.62" height="5.624" xlink:href="#eEskNgmDpx02" fill="#fff" fill-rule="evenodd"/></mask></g></g><path style="mix-blend-mode:lighten" d="M1384.978,483.118l2.755,1.507c.12567.069316.203708.201482.203708.345s-.078038.275684-.203708.345l-2.755,1.507c-.066197.035886-.120692.090033-.157.156l-1.505,2.755c-.068552.127271-.201441.206632-.346.206632s-.277448-.079361-.346-.206632l-1.506-2.755c-.036299-.066316-.091227-.120549-.158-.156l-2.755-1.507c-.126242-.068871-.204787-.201194-.204787-.345s.078545-.276129.204787-.345l2.755-1.507c.06644-.036016.120984-.09056.157-.157l1.506-2.755c.068871-.126242.201194-.204787.345-.204787s.276129.078545.345.204787l1.508,2.756c.038.067.092.122.16.158" fill="#fcd05c" fill-rule="evenodd"/><path style="mix-blend-mode:lighten" d="M1273.877,338.646l1.3.71c.26.144.26.52,0,.66l-1.3.712c-.063225.034747-.115253.086775-.15.15l-.71,1.298c-.066359.120132-.192759.194712-.33.194712s-.263641-.07458-.33-.194712l-.71-1.3c-.035849-.062562-.088505-.113832-.152-.148l-1.3-.712c-.120132-.066359-.194712-.192759-.194712-.33s.07458-.263641.194712-.33l1.3-.71c.062899-.03518.11482-.087101.15-.15l.71-1.3c.065598-.121731.192719-.197632.331-.197632s.265402.075901.331.197632l.71,1.3c.034923.063093.086907.115077.15.15" fill="#d15d64" fill-rule="evenodd"/><path style="mix-blend-mode:lighten" d="M1494.057,406.72l1.36.745c.126115.069454.204451.202025.204451.346s-.078336.276546-.204451.346l-1.36.743c-.065732.036619-.119802.091036-.156.157l-.743,1.36c-.069008.126688-.201736.205532-.346.205532s-.276992-.078844-.346-.205532l-.743-1.36c-.036246-.066268-.090732-.120754-.157-.157l-1.36-.743c-.126115-.069454-.204451-.202025-.204451-.346s.078336-.276546.204451-.346l1.36-.744c.06606-.035616.12054-.089402.157-.155l.743-1.36c.069454-.126115.202025-.204451.346-.204451s.276546.078336.346.204451l.744,1.36c.037.066.092.12.157.156" fill="#fcd05c" fill-rule="evenodd"/><path d="M1712,450.524l1.762-.542l1.762.542-.543-1.762.544-1.762-1.762.543L1712,447l.542,1.762Z" fill="none" fill-rule="evenodd" stroke="#00a959" stroke-width="1.097" stroke-linecap="round" stroke-linejoin="round"/><g transform="translate(1598 622)"><g mask="url(#eEskNgmDpx040)"><path d="M7.648,3.813L10.403,5.32c.12567.069316.203708.201482.203708.345s-.078038.275684-.203708.345L7.648,7.52c-.06644.036016-.120984.09056-.157.157L5.985,10.43c-.069316.12567-.201482.203708-.345.203708s-.275684-.078038-.345-.203708L3.785,7.675c-.036016-.06644-.09056-.120984-.157-.157L0.873,6.01c-.12567-.069316-.203708-.201482-.203708-.345s.078038-.275684.203708-.345L3.63,3.813c.06607-.036171.120252-.0907.156-.157L5.293,0.9c.069316-.12567.201482-.203708.345-.203708s.275684.078038.345.203708L7.491,3.656c.036285.06658.091191.121139.158.157" fill="#d15d64" fill-rule="evenodd"/><mask id="eEskNgmDpx040" mask-type="luminance"><use width="9.937" height="9.938" xlink:href="#eEskNgmDpx03" fill="#fff" fill-rule="evenodd"/></mask></g></g><g><path d="M70.472,513L69,514.47M74.47,509L73,510.47m-2.457,2.693c.723493.723493,1.896507.723493,2.62,0s.723493-1.896507,0-2.62-1.896507-.723493-2.62,0-.723493,1.896507,0,2.62Z" fill="none" fill-rule="evenodd" stroke="#e98333" stroke-width="1.097" stroke-linecap="round" stroke-linejoin="round"/></g><path style="mix-blend-mode:lighten" d="M239.057,1200.9l1.36-.743c.126115-.069454.204451-.202025.204451-.346s-.078336-.276546-.204451-.346l-1.36-.743c-.065732-.036619-.119802-.091036-.156-.157l-.743-1.36c-.069008-.126688-.201736-.205532-.346-.205532s-.276992.078844-.346.205532l-.743,1.36c-.036246.066268-.090732.120754-.157.157l-1.36.743c-.126115.069454-.204451.202025-.204451.346s.078336.276546.204451.346l1.36.744c.066.037.12.09.157.157l.743,1.36c.15.273.542.273.692,0l.744-1.36c.036487-.065831.090937-.119934.157-.156" fill="#fcd05c" fill-rule="evenodd"/><path style="mix-blend-mode:lighten" d="M1206.813,1132.906c-.000828-1.605768-1.303232-2.906828-2.909-2.906s-2.906828,1.303232-2.906,2.909c.001105,1.605768,1.303732,2.906605,2.9095,2.9055s2.906605-1.303732,2.9055-2.9095M114.978,1035.822l2.756-1.506c.126688-.069008.205532-.201736.205532-.346s-.078844-.276992-.205532-.346l-2.756-1.507c-.065732-.036619-.119802-.091036-.156-.157l-1.507-2.755c-.068871-.126242-.201194-.204787-.345-.204787s-.276129.078545-.345.204787l-1.508,2.755c-.036246.066268-.090732.120754-.157.157l-2.755,1.507c-.12567.069316-.203708.201482-.203708.345s.078038.275684.203708.345l2.755,1.508c.066.036.12.09.157.157l1.507,2.753c.15.274.542.274.69,0l1.508-2.755c.036217-.065694.090306-.119783.156-.156" fill="#d15d64" fill-rule="evenodd"/><path style="mix-blend-mode:lighten" d="M206.057,793.9l1.36-.744c.126115-.069454.204451-.202025.204451-.346s-.078336-.276546-.204451-.346l-1.36-.743c-.065596-.036348-.119652-.090404-.156-.156l-.743-1.36c-.069008-.126688-.201736-.205532-.346-.205532s-.276992.078844-.346.205532l-.743,1.36c-.036093.066637-.090593.121485-.157.158l-1.36.742c-.126115.069454-.204451.202025-.204451.346s.078336.276546.204451.346l1.36.745c.066.037.12.09.157.156l.743,1.36c.15.273.542.273.692,0l.744-1.36c.036487-.065831.090937-.119934.157-.156" fill="#fcd05c" fill-rule="evenodd"/><path style="mix-blend-mode:lighten" d="M1455.978,1061.822l2.755-1.506c.126623-.069301.205362-.202153.205362-.3465s-.078739-.277199-.205362-.3465l-2.755-1.507c-.065931-.035902-.120098-.090069-.156-.156l-1.506-2.755c-.068552-.127271-.201441-.206632-.346-.206632s-.277448.079361-.346.206632l-1.506,2.755c-.036975.066493-.092592.12072-.16.156l-2.753,1.507c-.126688.069008-.205532.201736-.205532.346s.078844.276992.205532.346l2.755,1.507c.066809.035861.121715.09042.158.157l1.506,2.753c.15.274.543.274.69,0l1.508-2.755c.036171-.06607.0907-.120252.157-.156" fill="#d15d64" fill-rule="evenodd"/><path style="mix-blend-mode:lighten" d="M1402.057,1085.9l1.36-.743c.126115-.069454.204451-.202025.204451-.346s-.078336-.276546-.204451-.346l-1.36-.744c-.065558-.035946-.119633-.089675-.156-.155l-.743-1.36c-.069454-.126115-.202025-.204451-.346-.204451s-.276546.078336-.346.204451l-.743,1.36c-.036308.065967-.090803.120114-.157.156l-1.36.745c-.126115.069454-.204451.202025-.204451.346s.078336.276546.204451.346l1.36.743c.066.036.12.09.157.157l.743,1.36c.15.273.542.273.692,0l.744-1.36c.036469-.0661.0909-.120531.157-.157" fill="#7b63ab" fill-rule="evenodd"/><path d="M411,894.666l3.554.888-.887-3.554Z" fill="none" fill-rule="evenodd" stroke="#e98333" stroke-width="1.097" stroke-linecap="round" stroke-linejoin="round"/><path style="mix-blend-mode:lighten" d="M522.226,745.225l2.018-1.104-2.018-1.102-1.104-2.018-1.104,2.018L518,744.12l2.018,1.105l1.104,2.018Z" fill="#00a959" fill-rule="evenodd"/><path style="mix-blend-mode:lighten" d="M177.98,1225.822l2.754-1.506c.126688-.069008.205532-.201736.205532-.346s-.078844-.276992-.205532-.346l-2.756-1.507c-.065694-.036217-.119783-.090306-.156-.156l-1.507-2.755c-.068871-.126242-.201194-.204787-.345-.204787s-.276129.078545-.345.204787l-1.507,2.756c-.037368.066445-.092859.120896-.16.157l-2.752,1.507c-.126242.068871-.204787.201194-.204787.345s.078545.276129.204787.345l2.754,1.508c.066.036.12.09.157.157l1.508,2.754c.15.274.54.274.69,0l1.507-2.755c.035914-.066432.090031-.121243.156-.158" fill="#e98333" fill-rule="evenodd"/><path style="mix-blend-mode:lighten" d="M299.813,1325.906c-.000536-1.03875-.555197-1.998308-1.455049-2.517219s-2.008184-.518339-2.9075.0015-1.452987,1.479969-1.452451,2.518719c.001105,1.605768,1.303732,2.906605,2.9095,2.9055s2.906605-1.303732,2.9055-2.9095" fill="#d15d64" fill-rule="evenodd"/><path d="M50.86,1174.232l-.847,1.6c-.040954.076425-.103575.139046-.18.18l-1.6.848c-.142534.075067-.231763.222907-.231763.384s.089229.308933.231763.384l1.6.847c.076.04.14.104.18.18l.847,1.6c.163.31.605.31.77,0l.845-1.6c.040954-.076425.103575-.139046.18-.18l1.6-.847c.142534-.075067.231763-.222907.231763-.384s-.089229-.308933-.231763-.384l-1.6-.847c-.07657-.040759-.139241-.10343-.18-.18l-.846-1.6c-.0752-.142984-.223447-.232515-.385-.232515s-.3098.089531-.385.232515Z" fill="none" fill-rule="evenodd" stroke="#7b63ab" stroke-width="1.097" stroke-linecap="round" stroke-linejoin="round"/><path style="mix-blend-mode:lighten" d="M1690.978,1110.822l2.755-1.506c.126623-.069301.205362-.202153.205362-.3465s-.078739-.277199-.205362-.3465l-2.755-1.507c-.065931-.035902-.120098-.090069-.156-.156l-1.506-2.755c-.068552-.127271-.201441-.206632-.346-.206632s-.277448.079361-.346.206632l-1.506,2.755c-.036975.066493-.092592.12072-.16.156l-2.753,1.507c-.126688.069008-.205532.201736-.205532.346s.078844.276992.205532.346l2.755,1.507c.066809.035861.121715.09042.158.157l1.506,2.753c.15.274.543.274.69,0l1.508-2.755c.036171-.06607.0907-.120252.157-.156" fill="#d15d64" fill-rule="evenodd"/><path style="mix-blend-mode:lighten" d="M1637.057,1155.9l1.36-.743c.126115-.069454.204451-.202025.204451-.346s-.078336-.276546-.204451-.346l-1.36-.744c-.065558-.035946-.119633-.089675-.156-.155l-.743-1.36c-.069454-.126115-.202025-.204451-.346-.204451s-.276546.078336-.346.204451l-.743,1.36c-.036308.065967-.090803.120114-.157.156l-1.36.745c-.126115.069454-.204451.202025-.204451.346s.078336.276546.204451.346l1.36.743c.066.036.12.09.157.157l.743,1.36c.15.273.542.273.692,0l.744-1.36c.036469-.0661.0909-.120531.157-.157" fill="#7b63ab" fill-rule="evenodd"/><path style="mix-blend-mode:lighten" d="M1611.877,1349.727l1.3-.71c.120132-.066359.194712-.192759.194712-.33s-.07458-.263641-.194712-.33l-1.3-.712c-.063225-.034747-.115253-.086775-.15-.15l-.71-1.3c-.066359-.120132-.192759-.194712-.33-.194712s-.263641.07458-.33.194712l-.71,1.3c-.035552.063299-.088235.115289-.152.15l-1.3.71c-.121149.066052-.196534.193014-.196534.331s.075385.264948.196534.331l1.3.71c.062899.03518.11482.087101.15.15l.71,1.3c.065598.121731.192719.197632.331.197632s.265402-.075901.331-.197632l.71-1.3c.034923-.063093.086907-.115077.15-.15" fill="#d15d64" fill-rule="evenodd"/><path style="mix-blend-mode:lighten" d="M1663.057,1249.9l1.36-.743c.126115-.069454.204451-.202025.204451-.346s-.078336-.276546-.204451-.346l-1.36-.743c-.065732-.036619-.119802-.091036-.156-.157l-.743-1.36c-.069008-.126688-.201736-.205532-.346-.205532s-.276992.078844-.346.205532l-.743,1.36c-.036246.066268-.090732.120754-.157.157l-1.36.743c-.126115.069454-.204451.202025-.204451.346s.078336.276546.204451.346l1.36.744c.066.037.12.09.157.157l.743,1.36c.15.273.542.273.692,0l.744-1.36c.036487-.065831.090937-.119934.157-.156" fill="#fcd05c" fill-rule="evenodd"/><g transform="matrix(1 0 0-1 1587 986)"><g mask="url(#eEskNgmDpx061)"><path d="M4.667,1.79l1.36.743c.126688.069008.205532.201736.205532.346s-.078844.276992-.205532.346l-1.36.743c-.065964.036198-.120381.090268-.157.156l-.743,1.36c-.069008.126688-.201736.205532-.346.205532s-.276992-.078844-.346-.205532l-.744-1.36c-.035946-.065558-.089675-.119633-.155-.156l-1.36-.743c-.126115-.069454-.204451-.202025-.204451-.346s.078336-.276546.204451-.346l1.36-.744c.06607-.036171.120252-.0907.156-.157l.745-1.36c.069008-.126688.201736-.205532.346-.205532s.276992.078844.346.205532l.743,1.36c.036.066.09.12.157.156" fill="#7b63ab" fill-rule="evenodd"/><mask id="eEskNgmDpx061" mask-type="luminance"><use width="5.62" height="5.624" xlink:href="#eEskNgmDpx04" fill="#fff" fill-rule="evenodd"/></mask></g></g><g><path d="M1164,915l2.78-2.78M1156,923l2.78-2.78m2.827-7.314c0-.997-5.483,4.486-4.486,4.486-.996,0,4.487,5.484,4.487,4.487c0,.996,5.483-4.488,4.486-4.488.997,0-4.486-5.483-4.486-4.486Z" fill="none" fill-rule="evenodd" stroke="#7b63ab" stroke-width="1.097" stroke-linecap="round" stroke-linejoin="round"/></g><path style="mix-blend-mode:lighten" d="M1384.978,770.822l2.755-1.507c.126688-.069008.205532-.201736.205532-.346s-.078844-.276992-.205532-.346l-2.755-1.506c-.066197-.035886-.120692-.090033-.157-.156l-1.505-2.755c-.068552-.127271-.201441-.206632-.346-.206632s-.277448.079361-.346.206632l-1.506,2.755c-.036143.066686-.091086.121281-.158.157l-2.755,1.507c-.126242.068871-.204787.201194-.204787.345s.078545.276129.204787.345l2.755,1.508c.06644.036016.120984.09056.157.157l1.506,2.754c.15.274.543.274.69,0l1.508-2.755c.036899-.067056.092485-.121947.16-.158" fill="#fcd05c" fill-rule="evenodd"/><path style="mix-blend-mode:lighten" d="M1273.877,962.727l1.3-.71c.120132-.066359.194712-.192759.194712-.33s-.07458-.263641-.194712-.33l-1.3-.712c-.063225-.034747-.115253-.086775-.15-.15l-.71-1.3c-.066359-.120132-.192759-.194712-.33-.194712s-.263641.07458-.33.194712l-.71,1.3c-.035552.063299-.088235.115289-.152.15l-1.3.71c-.121149.066052-.196534.193014-.196534.331s.075385.264948.196534.331l1.3.71c.062899.03518.11482.087101.15.15l.71,1.3c.065598.121731.192719.197632.331.197632s.265402-.075901.331-.197632l.71-1.3c.034923-.063093.086907-.115077.15-.15" fill="#d15d64" fill-rule="evenodd"/><path style="mix-blend-mode:lighten" d="M1494.057,873.9l1.36-.744c.126115-.069454.204451-.202025.204451-.346s-.078336-.276546-.204451-.346l-1.36-.743c-.065596-.036348-.119652-.090404-.156-.156l-.743-1.36c-.069008-.126688-.201736-.205532-.346-.205532s-.276992.078844-.346.205532l-.743,1.36c-.036093.066637-.090593.121485-.157.158l-1.36.742c-.126115.069454-.204451.202025-.204451.346s.078336.276546.204451.346l1.36.745c.066.037.12.09.157.156l.743,1.36c.15.273.542.273.692,0l.744-1.36c.036487-.065831.090937-.119934.157-.156" fill="#fcd05c" fill-rule="evenodd"/><path d="M1712,812l1.762.542l1.762-.542-.543,1.762.544,1.762-1.762-.543-1.762.544.542-1.762Z" fill="none" fill-rule="evenodd" stroke="#00a959" stroke-width="1.097" stroke-linecap="round" stroke-linejoin="round"/><g><path d="M70.472,721L69,719.53M74.47,725L73,723.53m-2.457-2.693c.723493-.723493,1.896507-.723493,2.62,0s.723493,1.896507,0,2.62-1.896507.723493-2.62,0-.723493-1.896507,0-2.62Z" fill="none" fill-rule="evenodd" stroke="#e98333" stroke-width="1.097" stroke-linecap="round" stroke-linejoin="round"/></g></g></svg>