<svg id="epitj5Lwear1" xmlns="http://www.w3.org/2000/svg" xmlns:xlink="http://www.w3.org/1999/xlink" viewBox="0 0 979.32677 424.8366" shape-rendering="geometricPrecision" text-rendering="geometricPrecision"><path d="M993.71816,412.83936h-574.57616c-5.080401,0-9.19888,4.118479-9.19888,9.19888s4.118479,9.19888,9.19888,9.19888h16.275v220.06548c0,5.080401,4.118479,9.19888,9.19888,9.19888s9.19888-4.118479,9.19888-9.19888l.1398-220.06548h461.1557l42.52,220.06548c0,5.080398,4.118477,9.198875,9.198875,9.198875s9.198875-4.118477,9.198875-9.198875l2.67633-220.06548h15.01383c5.080401,0,9.19888-4.118479,9.19888-9.19888s-4.118479-9.19888-9.19888-9.19888Z" transform="translate(-110.337-237.582)" fill="#ccc"/><path d="M518.73716,371.85047v38.9547h-97.59616c-10.757054.374236-19.780749-8.042701-20.154985-18.799755s8.042701-19.780749,18.799755-20.154985q.67739-.02358,1.35523,0Z" transform="translate(-110.337-237.582)" fill="#f2f2f2"/><path d="M521.13449,410.50552c-.000326.827309-.670911,1.497894-1.49822,1.49822h-100.23354c-11.330682-.007909-20.511823-9.19546-20.511823-20.526145s9.181141-20.518236,20.511823-20.526145h100.23354c.536201-.001385,1.032264.283879,1.300765.748013s.268501,1.03637,0,1.500504-.764564.749398-1.300765.748013h-100.23354c-9.671002.014609-17.50316,7.858607-17.50316,17.52962s7.832158,17.515011,17.50316,17.52962h100.23354c.827336.000337,1.497928.670964,1.49822,1.4983Z" transform="translate(-110.337-237.582)" fill="#6c63ff"/><path d="M518.73716,380.84h-104.87811c-.165038.000875-.299716-.131862-.301236-.296896s.13069-.300229.295716-.302394h104.88363c.16432.001644.296662.135317.296662.299645s-.132342.298001-.296662.299645Z" transform="translate(-110.337-237.582)" fill="#ccc"/><path d="M518.73716,388.03169h-104.87811c-.165038.000875-.299716-.131862-.301236-.296896s.13069-.300229.295716-.302394h104.88363c.16432.001644.296662.135317.296662.299645s-.132342.298001-.296662.299645Z" transform="translate(-110.337-237.582)" fill="#ccc"/><path d="M518.73716,395.22332h-104.87811c-.165038.000875-.299716-.131862-.301236-.296896s.13069-.300229.295716-.302394h104.88363c.16432.001644.296662.135317.296662.299645s-.132342.298001-.296662.299645Z" transform="translate(-110.337-237.582)" fill="#ccc"/><path d="M518.73716,402.41487h-104.87811c-.165038.000875-.299716-.131862-.301236-.296896s.13069-.300229.295716-.302394h104.88363c.16432.001644.296662.135317.296662.299645s-.132342.298001-.296662.299645Z" transform="translate(-110.337-237.582)" fill="#ccc"/><path d="M500.33941,330.80932v38.95474h-97.59617c-10.757054.374234-19.780746-8.042706-20.15498-18.79976s8.042706-19.780746,18.79976-20.15498q.67737-.02358,1.35522,0Z" transform="translate(-110.337-237.582)" fill="#f2f2f2"/><path d="M502.73673,369.46442c-.000326.827316-.670904,1.497912-1.49822,1.49826h-100.23351c-11.336277,0-20.526145-9.189868-20.526145-20.526145s9.189868-20.526145,20.526145-20.526145h100.23351c.535277,0,1.029893.285567,1.297531.74913s.267639,1.034697,0,1.49826-.762254.74913-1.297531.74913h-100.23351c-9.681353,0-17.52964,7.848287-17.52964,17.52964s7.848287,17.52964,17.52964,17.52964h100.23351c.827306.000342,1.497883.670924,1.49822,1.49823Z" transform="translate(-110.337-237.582)" fill="#3f3d56"/><path d="M500.33941,339.79886h-104.87811c-.165043.000884-.29973-.131853-.301253-.296891s.130692-.300238.295723-.302399h104.88364c.16432.001644.296662.135317.296662.299645s-.132342.298001-.296662.299645Z" transform="translate(-110.337-237.582)" fill="#ccc"/><path d="M500.33941,346.99054h-104.87811c-.165043.000884-.29973-.131853-.301253-.296891s.130692-.300238.295723-.302399h104.88364c.16432.001644.296662.135317.296662.299645s-.132342.298001-.296662.299645Z" transform="translate(-110.337-237.582)" fill="#ccc"/><path d="M500.33941,354.18217h-104.87811c-.165043.000884-.29973-.131853-.301253-.296891s.130692-.300238.295723-.302399h104.88364c.16432.001644.296662.135317.296662.299645s-.132342.298001-.296662.299645Z" transform="translate(-110.337-237.582)" fill="#ccc"/><path d="M500.33941,361.37376h-104.87811c-.165043.000884-.29973-.131853-.301253-.296891s.130692-.300238.295723-.302399h104.88364c.16432.001644.296662.135317.296662.299645s-.132342.298001-.296662.299645Z" transform="translate(-110.337-237.582)" fill="#ccc"/><path d="M613.87355,550.68347v-33.96509c-.000083-3.126367-2.534483-5.660767-5.66085-5.66085h-128.7843c-3.126363.000088-5.660757,2.534487-5.66084,5.66085v33.96509Z" transform="translate(-110.337-237.582)" fill="#ccc"/><rect width="140.106" height="43.8716" rx="0" ry="0" transform="translate(363.431 325.839)" fill="#ccc"/><path d="M473.76756,620.02887v33.96513c.000088,3.126359,2.534481,5.660752,5.66084,5.66084h128.7843c3.126363-.000083,5.660762-2.534477,5.66085-5.66084v-33.96513Z" transform="translate(-110.337-237.582)" fill="#ccc"/><circle r="4.24564" transform="translate(432.776 294.704)" fill="#fff"/><circle r="4.24564" transform="translate(432.776 351.312)" fill="#fff"/><circle r="4.24564" transform="translate(433.004 406.722)" fill="#fff"/><path d="M597.989,472.33053v38.9547h-97.59613c-10.751905.366751-19.76736-8.047955-20.14175-18.799597s8.033907-19.773073,18.78528-20.155103q.678-.02358,1.35647,0Z" transform="translate(-110.337-237.582)" fill="#f2f2f2"/><path d="M600.38637,510.98558c-.000326.827309-.670911,1.497894-1.49822,1.49822h-100.23354c-11.333443.002809-20.524415-9.180358-20.531234-20.513799s9.173096-20.527662,20.506534-20.538491h100.25824c.536201-.001385,1.032264.283879,1.300765.748013s.268501,1.03637,0,1.500504-.764564.749398-1.300765.748013h-100.23354c-9.672385.012653-17.506698,7.857222-17.506698,17.529615s7.834313,17.516962,17.506698,17.529615h100.23354c.827335.000348,1.497922.670975,1.49822,1.49831Z" transform="translate(-110.337-237.582)" fill="#3f3d56"/><path d="M597.989,481.32h-104.878c-.165043.000884-.29973-.131853-.301253-.296891s.130692-.300238.295723-.302399h104.88366c.16432.001644.296662.135317.296662.299645s-.132342.298001-.296662.299645Z" transform="translate(-110.337-237.582)" fill="#ccc"/><path d="M597.989,488.51175h-104.878c-.165043.000884-.29973-.131853-.301253-.296891s.130692-.300238.295723-.302399h104.88366c.16432.001644.296662.135317.296662.299645s-.132342.298001-.296662.299645Z" transform="translate(-110.337-237.582)" fill="#ccc"/><path d="M597.989,495.70338h-104.878c-.165043.000884-.29973-.131853-.301253-.296891s.130692-.300238.295723-.302399h104.88366c.16432.001644.296662.135317.296662.299645s-.132342.298001-.296662.299645Z" transform="translate(-110.337-237.582)" fill="#ccc"/><path d="M597.989,502.89493h-104.878c-.165043.000884-.29973-.131853-.301253-.296891s.130692-.300238.295723-.302399h104.88366c.16432.001644.296662.135317.296662.299645s-.132342.298001-.296662.299645Z" transform="translate(-110.337-237.582)" fill="#ccc"/><path d="M483.36747,317.81415h-44.46585c-.421985-.000351-.83838.096507-1.21689.28306l-11.22288,5.61835c-.754966.320912-1.245131,1.061875-1.245131,1.882215s.490165,1.561303,1.245131,1.882215l11.22288,5.61835c.378506.186563.794904.28342,1.21689.28306h44.46585c1.275152.073776,2.372719-.891216,2.4628-2.16532v-11.2367c-.090123-1.274071-1.187679-2.239013-2.4628-2.16523Z" transform="translate(-110.337-237.582)" fill="#3f3d56"/><path d="M485.83027,319.97947v11.2367c-.090092,1.274099-1.187652,2.239085-2.4628,2.16532h-8.8589v-15.56734h8.8589c1.275148-.073765,2.372708.891221,2.4628,2.16532Z" transform="translate(-110.337-237.582)" fill="#6c63ff"/><path d="M216.78083,537.99332c11.644416,4.093143,24.580656,1.814375,34.12552-6.01134c11.95262-10.03214,15.70013-26.56,18.74934-41.864q4.50949-22.63308,9.019-45.26617l-18.88217,13.00153c-13.57891,9.34993-27.46375,18.99939-36.86572,32.54233s-13.50598,32.0302-5.9518,46.68433" transform="translate(-110.337-237.582)" fill="#e6e6e6"/><path d="M218.39489,592.79741c-1.91113-13.92071-3.87625-28.0202-2.53572-42.09016c1.19057-12.4956,5.00277-24.70032,12.764-34.70734c4.119647-5.30163,9.132458-9.844065,14.81307-13.42309c1.48131-.935,2.84468,1.41257,1.36983,2.34348-9.829107,6.212008-17.43156,15.38494-21.71125,26.19626-4.72684,12.02273-5.48591,25.12848-4.67135,37.90006.4926,7.72345,1.53656,15.39627,2.58859,23.05926.172066.719077-.242141,1.448577-.94781,1.66928-.722109.19458-1.466369-.228003-1.6693-.94781Z" transform="translate(-110.337-237.582)" fill="#f2f2f2"/><path d="M236.80246,568.16434c4.994075,7.590314,13.586458,12.025043,22.6665,11.69871c11.47417-.54466,21.04-8.55293,29.651-16.15584l25.46969-22.48783-16.85671-.80672c-12.12234-.58011-24.55745-1.12124-36.10356,2.617s-22.19457,12.73508-24.30583,24.68624" transform="translate(-110.337-237.582)" fill="#e6e6e6"/><path d="M212.99392,600.79976c9.19853-16.27621,19.86805-34.36538,38.93262-40.14695c5.300907-1.602116,10.859233-2.176021,16.37566-1.69081c1.73863.14991,1.30448,2.82994-.431,2.6803-9.246753-.767734-18.475666,1.673908-26.133,6.91386-7.36852,5.01554-13.10573,11.98848-17.96161,19.383-2.97439,4.52936-5.63867,9.25082-8.30346,13.966-.85161,1.50687-3.34078.41915-2.47922-1.10534Z" transform="translate(-110.337-237.582)" fill="#f2f2f2"/><path d="M198.25523,617.93168c.631752-7.320333,5.285174-13.680616,12.0709-16.49847v-9.40956h15.782v9.70608c6.443571,2.95248,10.802823,9.140579,11.41362,16.202l3.711,43.13835h-46.68858Z" transform="translate(-110.337-237.582)" fill="#f2f2f2"/><path d="M734.973,411.955l-4.69488-1.97685-3.22067-23.53551h-42.889l-3.491,23.43936-4.20031,2.10013c-.413728.206896-.630917.671099-.524628,1.121298s.508162.768246.970738.768252h57.66283c.47477.000009.88374-.334646.977687-.800028s-.153174-.932482-.590767-1.116652Z" transform="translate(-110.337-237.582)" fill="#e6e6e6"/><path d="M811.1898,389.574h-210.68288c-2.301592-.005145-4.164676-1.872402-4.16467-4.174v-29.70908h219.01221v29.70908c-.000038,2.301576-1.86309,4.168806-4.16466,4.174Z" transform="translate(-110.337-237.582)" fill="#ccc"/><path d="M815.57469,369.73213h-219.42469v-127.11876c.003213-2.777657,2.254203-5.028562,5.03186-5.03167h209.361c2.777665.003108,5.02867,2.254005,5.03191,5.03167Z" transform="translate(-110.337-237.582)" fill="#3f3d56"/><path d="M802.46932,360.50584h-193.214c-2.141404-.002342-3.876787-1.737676-3.87919-3.87908v-105.93969c.002386-2.141449,1.737741-3.876862,3.87919-3.87932h193.214c2.141451.002458,3.876808,1.737869,3.8792,3.87932v105.93969c-.002408,2.141405-1.737795,3.876738-3.8792,3.87908Z" transform="translate(-110.337-237.582)" fill="#fff"/><path d="M751.57964,397.88662c2.525255-2.332493,5.953956-3.42666,9.363515-2.988082s6.449735,2.364848,8.302485,5.260492l26.13446-4.64642l6.69716,15.19317-36.99908,6.04328c-5.184642,2.852693-11.683541,1.376725-15.127381-3.435586s-2.744075-11.439867,1.628831-15.426854Z" transform="translate(-110.337-237.582)" fill="#ffb6b6"/><path d="M775.77611,417.286l27.24571-.33963l3.44882-.04668l55.43253-.69843c0,0,15.05312-14.3609,28.16068-29.1465l-1.83719-13.28833c-1.792081-13.041177-8.26128-24.987077-18.20366-33.61453-18.77312,12.5441-29.66,37.37369-29.66,37.37369l-34.37018,8.22071-3.43848.82227-21.35608,5.10326Z" transform="translate(-110.337-237.582)" fill="#6c63ff"/><path d="M915.25011,498.96167h-50.85762c0,2.17915-55.59414,3.94772-55.59414,3.94772-1.226348.923422-2.34404,1.982916-3.33166,3.15818-2.96775,3.539547-4.589835,8.013637-4.58,12.63271v3.15818c.004012,10.899671,8.838939,19.734598,19.73861,19.73861h94.62478c10.897411-.009467,19.729148-8.841199,19.73862-19.73861v-3.15818c-.015125-10.895054-8.843536-19.723474-19.73859-19.73861Z" transform="translate(-110.337-237.582)" fill="#e4e4e4"/><rect width="20.5282" height="118.49" rx="0" ry="0" transform="translate(747.402 303.231)" fill="#e4e4e4"/><path d="M799.31222,658.58132c0,2.218,31.10721.858,69.47992.858s69.47991,1.36012,69.47991-.858-31.1072-19.807-69.47991-19.807-69.47992,17.58891-69.47992,19.807Z" transform="translate(-110.337-237.582)" fill="#e4e4e4"/><polygon points="675.186,407.461 659.908,407.46 652.64,348.531 675.188,348.532 675.186,407.461" fill="#ffb6b6"/><path d="M789.41863,659.852l-49.2623-.00183v-.62309c.000734-10.589297,8.584963-19.173387,19.17426-19.17395h.00122l30.08773.00122Z" transform="translate(-110.337-237.582)" fill="#2f2e41"/><polygon points="630.031,407.461 614.753,407.46 607.485,348.531 630.033,348.532 630.031,407.461" fill="#ffb6b6"/><path d="M744.2636,659.852l-49.2623-.00183v-.62309c.000746-10.589292,8.584968-19.173376,19.17426-19.17395h.00122l30.08773.00122Z" transform="translate(-110.337-237.582)" fill="#2f2e41"/><circle r="26.564" transform="translate(766.887 41.6362)" fill="#ffb6b6"/><path d="M920.21655,461.22417c0,0,8.91308,47.1307-24.99958,53.13247s-82.86639,10.21993-82.86639,10.21993L790.36706,627.14324l-29.53443-2.63675c0,0,3.928-123.46737,13.5876-133.127s70.71212-38.58282,70.71212-38.58282Z" transform="translate(-110.337-237.582)" fill="#2f2e41"/><path d="M853.98286,441.47135L839.151,456.35062c0,0-107.0941,17.25-111.22553,41.9852-6.23747,37.34427-13.60493,118.552-13.60493,118.552l32.1988-2.41491l12.62647-92.31123l51.5182-11.71874L869.27729,478.5Z" transform="translate(-110.337-237.582)" fill="#2f2e41"/><path d="M902.78526,263.36115c-2.6223-4.94751-5.95413-14.80785-11.24679-16.63657-2.939263-.974602-5.977131-1.621761-9.05841-1.92972l-8.99618,3.46009l4.89616-3.808q-1.42988-.08519-2.85817-.13928l-6.0699,2.33453l3.10542-2.41532c-5.65883-.05808-11.5.53031-15.88468,3.9752-3.73817,2.93677-7.44169,14.06185-8.04057,18.77753-.640132,4.511238-.416047,9.103078.6603,13.53055l1.53716,1.46166c.537748-1.232941.942049-2.519874,1.206-3.83883c1.114264-4.982923,4.272551-9.267609,8.70263-11.80641l.08368-.0472c2.5782-1.451,5.7065-1.3841,8.66308-1.27769l14.04158.50527c3.37829.12158,7.01608.33533,9.64978,2.45443c1.673917,1.563224,2.99007,3.469877,3.85826,5.58929c1.30868,2.6414,3.8661,12.60418,3.8661,12.60418s1.44689-1.88062,2.1404-.48092c1.112146-3.65194,1.788302-7.42264,2.01437-11.23347.221256-3.827809-.561322-7.647012-2.27022-11.07932Z" transform="translate(-110.337-237.582)" fill="#2f2e41"/><path id="epitj5Lwear51" d="M995.69426,290.88349c-3.430234.225873-6.584235,1.959537-8.613313,4.734491s-2.724795,6.306142-1.899947,9.643379l-21.3614,15.75722l6.40951,15.31674l29.8539-22.67594c5.638278-1.796705,9.041638-7.52656,7.921949-13.337293s-6.408511-9.865663-12.310709-9.438597Z" transform="matrix(1 0.000402-.000402 1-111.932823-229.48925)" fill="#ffb6b6"/><path id="epitj5Lwear52" d="M992.25627,323.052l-53.551,59.4744c0,0-25.60913-8.19816-45.41466-17.08624l-8.8977-27.32787c-2.066105-6.339719-2.94783-13.005545-2.60112-19.66442c27.45606-7.306,59.391,19.87863,59.391,19.87863l40.08517-31.39877Z" transform="matrix(1.009998-.001949 0.001937 1.003636-124.053573-233.889205)" fill="#6c63ff"/><path d="M867.301,465.6169c-9.554-3.30029-19.43312-6.71277-30.08912-7.99385l-.45773-.05533.12632-.443c11.03073-38.7308,8.27761-63.50657,2.87195-100.72306-2.361071-16.48676,6.407942-32.561653,21.5483-39.50121l.06542-.02958l30.43436-1.93391.06935-.00423l22.13437,6.50989c6.544252,1.939074,10.990224,8.006734,10.86724,14.83111-.23987,12.23937.26868,25.9043.80711,40.37114c1.20787,32.45569,2.45686,66.01647-4.63045,87.79166l-.03718.11412-.09462.07416c-6.515489,5.306515-14.678104,8.173784-23.08086,8.10758-9.93489-.00004-20.0736-3.50205-30.53446-7.11549Z" transform="translate(-110.337-237.582)" fill="#6c63ff"/><path d="M1088.24817,662.4183h-976.49634c-.781599,0-1.41521-.633611-1.41521-1.41521s.633611-1.41521,1.41521-1.41521h976.49634c.781599,0,1.41521.633611,1.41521,1.41521s-.633611,1.41521-1.41521,1.41521Z" transform="translate(-110.337-237.582)" fill="#ccc"/><script><![CDATA[!function(t,n){"object"==typeof exports&&"undefined"!=typeof module?module.exports=n():"function"==typeof define&&define.amd?define(n):((t="undefined"!=typeof globalThis?globalThis:t||self).__SVGATOR_PLAYER__=t.__SVGATOR_PLAYER__||{},t.__SVGATOR_PLAYER__["5c7f360c"]=n())}(this,(function(){"use strict";function t(t,n){var r=Object.keys(t);if(Object.getOwnPropertySymbols){var e=Object.getOwnPropertySymbols(t);n&&(e=e.filter((function(n){return Object.getOwnPropertyDescriptor(t,n).enumerable}))),r.push.apply(r,e)}return r}function n(n){for(var r=1;r<arguments.length;r++){var e=null!=arguments[r]?arguments[r]:{};r%2?t(Object(e),!0).forEach((function(t){u(n,t,e[t])})):Object.getOwnPropertyDescriptors?Object.defineProperties(n,Object.getOwnPropertyDescriptors(e)):t(Object(e)).forEach((function(t){Object.defineProperty(n,t,Object.getOwnPropertyDescriptor(e,t))}))}return n}function r(t){return(r="function"==typeof Symbol&&"symbol"==typeof Symbol.iterator?function(t){return typeof t}:function(t){return t&&"function"==typeof Symbol&&t.constructor===Symbol&&t!==Symbol.prototype?"symbol":typeof t})(t)}function e(t,n){if(!(t instanceof n))throw new TypeError("Cannot call a class as a function")}function i(t,n){for(var r=0;r<n.length;r++){var e=n[r];e.enumerable=e.enumerable||!1,e.configurable=!0,"value"in e&&(e.writable=!0),Object.defineProperty(t,e.key,e)}}function o(t,n,r){return n&&i(t.prototype,n),r&&i(t,r),t}function u(t,n,r){return n in t?Object.defineProperty(t,n,{value:r,enumerable:!0,configurable:!0,writable:!0}):t[n]=r,t}function a(t){return(a=Object.setPrototypeOf?Object.getPrototypeOf:function(t){return t.__proto__||Object.getPrototypeOf(t)})(t)}function l(t,n){return(l=Object.setPrototypeOf||function(t,n){return t.__proto__=n,t})(t,n)}function f(){if("undefined"==typeof Reflect||!Reflect.construct)return!1;if(Reflect.construct.sham)return!1;if("function"==typeof Proxy)return!0;try{return Boolean.prototype.valueOf.call(Reflect.construct(Boolean,[],(function(){}))),!0}catch(t){return!1}}function s(t,n,r){return(s=f()?Reflect.construct:function(t,n,r){var e=[null];e.push.apply(e,n);var i=new(Function.bind.apply(t,e));return r&&l(i,r.prototype),i}).apply(null,arguments)}function c(t,n){if(n&&("object"==typeof n||"function"==typeof n))return n;if(void 0!==n)throw new TypeError("Derived constructors may only return object or undefined");return function(t){if(void 0===t)throw new ReferenceError("this hasn't been initialised - super() hasn't been called");return t}(t)}function h(t,n,r){return(h="undefined"!=typeof Reflect&&Reflect.get?Reflect.get:function(t,n,r){var e=function(t,n){for(;!Object.prototype.hasOwnProperty.call(t,n)&&null!==(t=a(t)););return t}(t,n);if(e){var i=Object.getOwnPropertyDescriptor(e,n);return i.get?i.get.call(r):i.value}})(t,n,r||t)}function v(t){return function(t){if(Array.isArray(t))return y(t)}(t)||function(t){if("undefined"!=typeof Symbol&&null!=t[Symbol.iterator]||null!=t["@@iterator"])return Array.from(t)}(t)||function(t,n){if(!t)return;if("string"==typeof t)return y(t,n);var r=Object.prototype.toString.call(t).slice(8,-1);"Object"===r&&t.constructor&&(r=t.constructor.name);if("Map"===r||"Set"===r)return Array.from(t);if("Arguments"===r||/^(?:Ui|I)nt(?:8|16|32)(?:Clamped)?Array$/.test(r))return y(t,n)}(t)||function(){throw new TypeError("Invalid attempt to spread non-iterable instance.\nIn order to be iterable, non-array objects must have a [Symbol.iterator]() method.")}()}function y(t,n){(null==n||n>t.length)&&(n=t.length);for(var r=0,e=new Array(n);r<n;r++)e[r]=t[r];return e}var g=d(Math.pow(10,-6));function d(t){var n=arguments.length>1&&void 0!==arguments[1]?arguments[1]:6;if(Number.isInteger(t))return t;var r=Math.pow(10,n);return Math.round((+t+Number.EPSILON)*r)/r}function p(t,n){var r=arguments.length>2&&void 0!==arguments[2]?arguments[2]:g;return Math.abs(t-n)<r}var m=Math.PI/180;function b(t){return t}function w(t,n,r){var e=1-r;return 3*r*e*(t*e+n*r)+r*r*r}function A(){var t=arguments.length>0&&void 0!==arguments[0]?arguments[0]:0,n=arguments.length>1&&void 0!==arguments[1]?arguments[1]:0,r=arguments.length>2&&void 0!==arguments[2]?arguments[2]:1,e=arguments.length>3&&void 0!==arguments[3]?arguments[3]:1;return t<0||t>1||r<0||r>1?null:p(t,n)&&p(r,e)?b:function(i){if(i<=0)return t>0?i*n/t:0===n&&r>0?i*e/r:0;if(i>=1)return r<1?1+(i-1)*(e-1)/(r-1):1===r&&t<1?1+(i-1)*(n-1)/(t-1):1;for(var o,u=0,a=1;u<a;){var l=w(t,r,o=(u+a)/2);if(p(i,l))break;l<i?u=o:a=o}return w(n,e,o)}}function x(){return 1}function k(t){return 1===t?1:0}function S(){var t=arguments.length>0&&void 0!==arguments[0]?arguments[0]:1,n=arguments.length>1&&void 0!==arguments[1]?arguments[1]:0;if(1===t){if(0===n)return k;if(1===n)return x}var r=1/t;return function(t){return t>=1?1:(t+=n*r)-t%r}}var _=Math.sin,O=Math.cos,j=Math.acos,M=Math.asin,P=Math.tan,E=Math.atan2,I=Math.PI/180,R=180/Math.PI,F=Math.sqrt,N=function(){function t(){var n=arguments.length>0&&void 0!==arguments[0]?arguments[0]:1,r=arguments.length>1&&void 0!==arguments[1]?arguments[1]:0,i=arguments.length>2&&void 0!==arguments[2]?arguments[2]:0,o=arguments.length>3&&void 0!==arguments[3]?arguments[3]:1,u=arguments.length>4&&void 0!==arguments[4]?arguments[4]:0,a=arguments.length>5&&void 0!==arguments[5]?arguments[5]:0;e(this,t),this.m=[n,r,i,o,u,a],this.i=null,this.w=null,this.s=null}return o(t,[{key:"determinant",get:function(){var t=this.m;return t[0]*t[3]-t[1]*t[2]}},{key:"isIdentity",get:function(){if(null===this.i){var t=this.m;this.i=1===t[0]&&0===t[1]&&0===t[2]&&1===t[3]&&0===t[4]&&0===t[5]}return this.i}},{key:"point",value:function(t,n){var r=this.m;return{x:r[0]*t+r[2]*n+r[4],y:r[1]*t+r[3]*n+r[5]}}},{key:"translateSelf",value:function(){var t=arguments.length>0&&void 0!==arguments[0]?arguments[0]:0,n=arguments.length>1&&void 0!==arguments[1]?arguments[1]:0;if(!t&&!n)return this;var r=this.m;return r[4]+=r[0]*t+r[2]*n,r[5]+=r[1]*t+r[3]*n,this.w=this.s=this.i=null,this}},{key:"rotateSelf",value:function(){var t=arguments.length>0&&void 0!==arguments[0]?arguments[0]:0;if(t%=360){var n=_(t*=I),r=O(t),e=this.m,i=e[0],o=e[1];e[0]=i*r+e[2]*n,e[1]=o*r+e[3]*n,e[2]=e[2]*r-i*n,e[3]=e[3]*r-o*n,this.w=this.s=this.i=null}return this}},{key:"scaleSelf",value:function(){var t=arguments.length>0&&void 0!==arguments[0]?arguments[0]:1,n=arguments.length>1&&void 0!==arguments[1]?arguments[1]:1;if(1!==t||1!==n){var r=this.m;r[0]*=t,r[1]*=t,r[2]*=n,r[3]*=n,this.w=this.s=this.i=null}return this}},{key:"skewSelf",value:function(t,n){if(n%=360,(t%=360)||n){var r=this.m,e=r[0],i=r[1],o=r[2],u=r[3];t&&(t=P(t*I),r[2]+=e*t,r[3]+=i*t),n&&(n=P(n*I),r[0]+=o*n,r[1]+=u*n),this.w=this.s=this.i=null}return this}},{key:"resetSelf",value:function(){var t=arguments.length>0&&void 0!==arguments[0]?arguments[0]:1,n=arguments.length>1&&void 0!==arguments[1]?arguments[1]:0,r=arguments.length>2&&void 0!==arguments[2]?arguments[2]:0,e=arguments.length>3&&void 0!==arguments[3]?arguments[3]:1,i=arguments.length>4&&void 0!==arguments[4]?arguments[4]:0,o=arguments.length>5&&void 0!==arguments[5]?arguments[5]:0,u=this.m;return u[0]=t,u[1]=n,u[2]=r,u[3]=e,u[4]=i,u[5]=o,this.w=this.s=this.i=null,this}},{key:"recomposeSelf",value:function(){var t=arguments.length>0&&void 0!==arguments[0]?arguments[0]:null,n=arguments.length>1&&void 0!==arguments[1]?arguments[1]:null,r=arguments.length>2&&void 0!==arguments[2]?arguments[2]:null,e=arguments.length>3&&void 0!==arguments[3]?arguments[3]:null,i=arguments.length>4&&void 0!==arguments[4]?arguments[4]:null;return this.isIdentity||this.resetSelf(),t&&(t.x||t.y)&&this.translateSelf(t.x,t.y),n&&this.rotateSelf(n),r&&(r.x&&this.skewSelf(r.x,0),r.y&&this.skewSelf(0,r.y)),!e||1===e.x&&1===e.y||this.scaleSelf(e.x,e.y),i&&(i.x||i.y)&&this.translateSelf(i.x,i.y),this}},{key:"decompose",value:function(){var t=arguments.length>0&&void 0!==arguments[0]?arguments[0]:0,n=arguments.length>1&&void 0!==arguments[1]?arguments[1]:0,r=this.m,e=r[0]*r[0]+r[1]*r[1],i=[[r[0],r[1]],[r[2],r[3]]],o=F(e);if(0===o)return{origin:{x:d(r[4]),y:d(r[5])},translate:{x:d(t),y:d(n)},scale:{x:0,y:0},skew:{x:0,y:0},rotate:0};i[0][0]/=o,i[0][1]/=o;var u=r[0]*r[3]-r[1]*r[2]<0;u&&(o=-o);var a=i[0][0]*i[1][0]+i[0][1]*i[1][1];i[1][0]-=i[0][0]*a,i[1][1]-=i[0][1]*a;var l=F(i[1][0]*i[1][0]+i[1][1]*i[1][1]);if(0===l)return{origin:{x:d(r[4]),y:d(r[5])},translate:{x:d(t),y:d(n)},scale:{x:d(o),y:0},skew:{x:0,y:0},rotate:0};i[1][0]/=l,i[1][1]/=l,a/=l;var f=0;return i[1][1]<0?(f=j(i[1][1])*R,i[0][1]<0&&(f=360-f)):f=M(i[0][1])*R,u&&(f=-f),a=E(a,F(i[0][0]*i[0][0]+i[0][1]*i[0][1]))*R,u&&(a=-a),{origin:{x:d(r[4]),y:d(r[5])},translate:{x:d(t),y:d(n)},scale:{x:d(o),y:d(l)},skew:{x:d(a),y:0},rotate:d(f)}}},{key:"clone",value:function(){var t=this.m;return new this.constructor(t[0],t[1],t[2],t[3],t[4],t[5])}},{key:"toString",value:function(){var t=arguments.length>0&&void 0!==arguments[0]?arguments[0]:" ";if(null===this.s){var n=this.m.map((function(t){return d(t)}));1===n[0]&&0===n[1]&&0===n[2]&&1===n[3]?this.s="translate("+n[4]+t+n[5]+")":this.s="matrix("+n.join(t)+")"}return this.s}}],[{key:"create",value:function(t){return t?Array.isArray(t)?s(this,v(t)):t instanceof this?t.clone():(new this).recomposeSelf(t.origin,t.rotate,t.skew,t.scale,t.translate):new this}}]),t}();function T(t,n,r){return t>=.5?r:n}function B(t,n,r){return 0===t||n===r?n:t*(r-n)+n}function q(t,n,r){var e=B(t,n,r);return e<=0?0:e}function L(t,n,r){var e=B(t,n,r);return e<=0?0:e>=1?1:e}function C(t,n,r){return 0===t?n:1===t?r:{x:B(t,n.x,r.x),y:B(t,n.y,r.y)}}function D(t,n,r){var e=function(t,n,r){return Math.round(B(t,n,r))}(t,n,r);return e<=0?0:e>=255?255:e}function z(t,n,r){return 0===t?n:1===t?r:{r:D(t,n.r,r.r),g:D(t,n.g,r.g),b:D(t,n.b,r.b),a:B(t,null==n.a?1:n.a,null==r.a?1:r.a)}}function V(t,n){for(var r=[],e=0;e<t;e++)r.push(n);return r}function G(t,n){if(--n<=0)return t;var r=(t=Object.assign([],t)).length;do{for(var e=0;e<r;e++)t.push(t[e])}while(--n>0);return t}var Y,$=function(){function t(n){e(this,t),this.list=n,this.length=n.length}return o(t,[{key:"setAttribute",value:function(t,n){for(var r=this.list,e=0;e<this.length;e++)r[e].setAttribute(t,n)}},{key:"removeAttribute",value:function(t){for(var n=this.list,r=0;r<this.length;r++)n[r].removeAttribute(t)}},{key:"style",value:function(t,n){for(var r=this.list,e=0;e<this.length;e++)r[e].style[t]=n}}]),t}(),U=/-./g,Q=function(t,n){return n.toUpperCase()};function H(t){return"function"==typeof t?t:T}function J(t){return t?"function"==typeof t?t:Array.isArray(t)?function(t){var n=arguments.length>1&&void 0!==arguments[1]?arguments[1]:b;if(!Array.isArray(t))return n;switch(t.length){case 1:return S(t[0])||n;case 2:return S(t[0],t[1])||n;case 4:return A(t[0],t[1],t[2],t[3])||n}return n}(t,null):function(t,n){var r=arguments.length>2&&void 0!==arguments[2]?arguments[2]:b;switch(t){case"linear":return b;case"steps":return S(n.steps||1,n.jump||0)||r;case"bezier":case"cubic-bezier":return A(n.x1||0,n.y1||0,n.x2||0,n.y2||0)||r}return r}(t.type,t.value,null):null}function Z(t,n,r){var e=arguments.length>3&&void 0!==arguments[3]&&arguments[3],i=n.length-1;if(t<=n[0].t)return e?[0,0,n[0].v]:n[0].v;if(t>=n[i].t)return e?[i,1,n[i].v]:n[i].v;var o,u=n[0],a=null;for(o=1;o<=i;o++){if(!(t>n[o].t)){a=n[o];break}u=n[o]}return null==a?e?[i,1,n[i].v]:n[i].v:u.t===a.t?e?[o,1,a.v]:a.v:(t=(t-u.t)/(a.t-u.t),u.e&&(t=u.e(t)),e?[o,t,r(t,u.v,a.v)]:r(t,u.v,a.v))}function K(t,n){var r=arguments.length>2&&void 0!==arguments[2]?arguments[2]:null;return t&&t.length?"function"!=typeof n?null:("function"!=typeof r&&(r=null),function(e){var i=Z(e,t,n);return null!=i&&r&&(i=r(i)),i}):null}function W(t,n){return t.t-n.t}function X(t,n,e,i,o){var u,a="@"===e[0],l="#"===e[0],f=Y[e],s=T;switch(a?(u=e.substr(1),e=u.replace(U,Q)):l&&(e=e.substr(1)),r(f)){case"function":if(s=f(i,o,Z,J,e,a,n,t),l)return s;break;case"string":s=K(i,H(f));break;case"object":if((s=K(i,H(f.i),f.f))&&"function"==typeof f.u)return f.u(n,s,e,a,t)}return s?function(t,n,r){if(arguments.length>3&&void 0!==arguments[3]&&arguments[3])return t instanceof $?function(e){return t.style(n,r(e))}:function(e){return t.style[n]=r(e)};if(Array.isArray(n)){var e=n.length;return function(i){var o=r(i);if(null==o)for(var u=0;u<e;u++)t[u].removeAttribute(n);else for(var a=0;a<e;a++)t[a].setAttribute(n,o)}}return function(e){var i=r(e);null==i?t.removeAttribute(n):t.setAttribute(n,i)}}(n,e,s,a):null}function tt(t,n,e,i){if(!i||"object"!==r(i))return null;var o=null,u=null;return Array.isArray(i)?u=function(t){if(!t||!t.length)return null;for(var n=0;n<t.length;n++)t[n].e&&(t[n].e=J(t[n].e));return t.sort(W)}(i):(u=i.keys,o=i.data||null),u?X(t,n,e,u,o):null}function nt(t,n,r){if(!r)return null;var e=[];for(var i in r)if(r.hasOwnProperty(i)){var o=tt(t,n,i,r[i]);o&&e.push(o)}return e.length?e:null}function rt(t,n){if(!n.duration||n.duration<0)return null;var r=function(t,n){if(!n)return null;var r=[];if(Array.isArray(n))for(var e=n.length,i=0;i<e;i++){var o=n[i];if(2===o.length){var u=null;if("string"==typeof o[0])u=t.getElementById(o[0]);else if(Array.isArray(o[0])){u=[];for(var a=0;a<o[0].length;a++)if("string"==typeof o[0][a]){var l=t.getElementById(o[0][a]);l&&u.push(l)}u=u.length?1===u.length?u[0]:new $(u):null}if(u){var f=nt(t,u,o[1]);f&&(r=r.concat(f))}}}else for(var s in n)if(n.hasOwnProperty(s)){var c=t.getElementById(s);if(c){var h=nt(t,c,n[s]);h&&(r=r.concat(h))}}return r.length?r:null}(t,n.elements);return r?function(t,n){var r=arguments.length>2&&void 0!==arguments[2]?arguments[2]:1/0,e=arguments.length>3&&void 0!==arguments[3]?arguments[3]:1,i=arguments.length>4&&void 0!==arguments[4]&&arguments[4],o=arguments.length>5&&void 0!==arguments[5]?arguments[5]:1,u=t.length,a=e>0?n:0;i&&r%2==0&&(a=n-a);var l=null;return function(f,s){var c=f%n,h=1+(f-c)/n;s*=e,i&&h%2==0&&(s=-s);var v=!1;if(h>r)c=a,v=!0,-1===o&&(c=e>0?0:n);else if(s<0&&(c=n-c),c===l)return!1;l=c;for(var y=0;y<u;y++)t[y](c);return v}}(r,n.duration,n.iterations||1/0,n.direction||1,!!n.alternate,n.fill||1):null}function et(t){return+("0x"+(t.replace(/[^0-9a-fA-F]+/g,"")||27))}function it(t,n,r){return!t||!r||n>t.length?t:t.substring(0,n)+it(t.substring(n+1),r,r)}function ot(t){var n=arguments.length>1&&void 0!==arguments[1]?arguments[1]:27;return!t||t%n?t%n:ot(t/n,n)}function ut(t,n,r){if(t&&t.length){var e=et(r),i=et(n),o=ot(e)+5,u=it(t,ot(e,5),o);return u=u.replace(/\x7c$/g,"==").replace(/\x2f$/g,"="),u=function(t,n,r){var e=+("0x"+t.substring(0,4));t=t.substring(4);for(var i=n%e+r%27,o=[],u=0;u<t.length;u+=2)if("|"!==t[u]){var a=+("0x"+t[u]+t[u+1])-i;o.push(a)}else{var l=+("0x"+t.substring(u+1,u+1+4))-i;u+=3,o.push(l)}return String.fromCharCode.apply(String,o)}(u=(u=atob(u)).replace(/[\x41-\x5A]/g,""),i,e),u=JSON.parse(u)}}Number.isInteger||(Number.isInteger=function(t){return"number"==typeof t&&isFinite(t)&&Math.floor(t)===t}),Number.EPSILON||(Number.EPSILON=2220446049250313e-31);var at=function(){function t(n,r){var i=arguments.length>2&&void 0!==arguments[2]?arguments[2]:{};e(this,t),this._id=0,this._running=!1,this._rollingBack=!1,this._animations=n,this.duration=r.duration,this.alternate=r.alternate,this.fill=r.fill,this.iterations=r.iterations,this.direction=i.direction||1,this.speed=i.speed||1,this.fps=i.fps||100,this.offset=i.offset||0,this.rollbackStartOffset=0}return o(t,[{key:"_rollback",value:function(){var t=this,n=1/0,r=null;this.rollbackStartOffset=this.offset,this._rollingBack||(this._rollingBack=!0,this._running=!0);this._id=window.requestAnimationFrame((function e(i){if(t._rollingBack){null==r&&(r=i);var o=i-r,u=t.rollbackStartOffset-o,a=Math.round(u*t.speed);if(a>t.duration&&n!=1/0){var l=!!t.alternate&&a/t.duration%2>1,f=a%t.duration;a=(f+=l?t.duration:0)||t.duration}var s=t.fps?1e3/t.fps:0,c=Math.max(0,a);if(c<n-s){t.offset=c,n=c;for(var h=t._animations,v=h.length,y=0;y<v;y++)h[y](c,t.direction)}var g=!1;if(t.iterations>0&&-1===t.fill){var d=t.iterations*t.duration,p=d==a;a=p?0:a,t.offset=p?0:t.offset,g=a>d}a>0&&t.offset>=a&&!g?t._id=window.requestAnimationFrame(e):t.stop()}}))}},{key:"_start",value:function(){var t=this,n=arguments.length>0&&void 0!==arguments[0]?arguments[0]:0,r=-1/0,e=null,i={},o=function o(u){t._running=!0,null==e&&(e=u);var a=Math.round((u-e+n)*t.speed),l=t.fps?1e3/t.fps:0;if(a>r+l&&!t._rollingBack){t.offset=a,r=a;for(var f=t._animations,s=f.length,c=0,h=0;h<s;h++)i[h]?c++:(i[h]=f[h](a,t.direction),i[h]&&c++);if(c===s)return void t._stop()}t._id=window.requestAnimationFrame(o)};this._id=window.requestAnimationFrame(o)}},{key:"_stop",value:function(){this._id&&window.cancelAnimationFrame(this._id),this._running=!1,this._rollingBack=!1}},{key:"play",value:function(){!this._rollingBack&&this._running||(this._rollingBack=!1,this.rollbackStartOffset>this.duration&&(this.offset=this.rollbackStartOffset-(this.rollbackStartOffset-this.offset)%this.duration,this.rollbackStartOffset=0),this._start(this.offset))}},{key:"stop",value:function(){this._stop(),this.offset=0,this.rollbackStartOffset=0;var t=this.direction,n=this._animations;window.requestAnimationFrame((function(){for(var r=0;r<n.length;r++)n[r](0,t)}))}},{key:"reachedToEnd",value:function(){return this.iterations>0&&this.offset>=this.iterations*this.duration}},{key:"restart",value:function(){this._stop(),this.offset=0,this._start()}},{key:"pause",value:function(){this._stop()}},{key:"reverse",value:function(){this.direction=-this.direction}}],[{key:"build",value:function(r,e){return delete r.animationSettings,r.options=ut(r.options,r.root,"5c7f360c"),r.animations.map((function(t){var e=ut(t.s,r.root,"5c7f360c");for(var i in delete t.s,r.animationSettings||(r.animationSettings=n({},e)),e)e.hasOwnProperty(i)&&(t[i]=e[i])})),(r=function(t,n){if(Y=n,!t||!t.root||!Array.isArray(t.animations))return null;for(var r=document.getElementsByTagName("svg"),e=!1,i=0;i<r.length;i++)if(r[i].id===t.root&&!r[i].svgatorAnimation){(e=r[i]).svgatorAnimation=!0;break}if(!e)return null;var o=t.animations.map((function(t){return rt(e,t)})).filter((function(t){return!!t}));return o.length?{element:e,animations:o,animationSettings:t.animationSettings,options:t.options||void 0}:null}(r,e))?{el:r.element,options:r.options||{},player:new t(r.animations,r.animationSettings,r.options)}:null}},{key:"push",value:function(t){return this.build(t)}},{key:"init",value:function(){var t=this,n=window.__SVGATOR_PLAYER__&&window.__SVGATOR_PLAYER__["5c7f360c"];Array.isArray(n)&&n.splice(0).forEach((function(n){return t.build(n)}))}}]),t}();function lt(t){return d(t)+""}function ft(t){var n=arguments.length>1&&void 0!==arguments[1]?arguments[1]:" ";return t&&t.length?t.map(lt).join(n):""}function st(t){if(!t)return"transparent";if(null==t.a||t.a>=1){var n=function(t){return 1===(t=parseInt(t).toString(16)).length?"0"+t:t},r=function(t){return t.charAt(0)===t.charAt(1)},e=n(t.r),i=n(t.g),o=n(t.b);return r(e)&&r(i)&&r(o)&&(e=e.charAt(0),i=i.charAt(0),o=o.charAt(0)),"#"+e+i+o}return"rgba("+t.r+","+t.g+","+t.b+","+t.a+")"}function ct(t){return t?"url(#"+t+")":"none"}!function(){for(var t=0,n=["ms","moz","webkit","o"],r=0;r<n.length&&!window.requestAnimationFrame;++r)window.requestAnimationFrame=window[n[r]+"RequestAnimationFrame"],window.cancelAnimationFrame=window[n[r]+"CancelAnimationFrame"]||window[n[r]+"CancelRequestAnimationFrame"];window.requestAnimationFrame||(window.requestAnimationFrame=function(n){var r=Date.now(),e=Math.max(0,16-(r-t)),i=window.setTimeout((function(){n(r+e)}),e);return t=r+e,i},window.cancelAnimationFrame=window.clearTimeout)}();var ht={f:null,i:function(t,n,r){return 0===t?n:1===t?r:{x:q(t,n.x,r.x),y:q(t,n.y,r.y)}},u:function(t,n){return function(r){var e=n(r);t.setAttribute("rx",lt(e.x)),t.setAttribute("ry",lt(e.y))}}},vt={f:null,i:function(t,n,r){return 0===t?n:1===t?r:{width:q(t,n.width,r.width),height:q(t,n.height,r.height)}},u:function(t,n){return function(r){var e=n(r);t.setAttribute("width",lt(e.width)),t.setAttribute("height",lt(e.height))}}};Object.freeze({M:2,L:2,Z:0,H:1,V:1,C:6,Q:4,T:2,S:4,A:7});var yt={},gt=null;function dt(t){var n=function(){if(gt)return gt;if("object"!==("undefined"==typeof document?"undefined":r(document))||!document.createElementNS)return{};var t=document.createElementNS("http://www.w3.org/2000/svg","svg");return t&&t.style?(t.style.position="absolute",t.style.opacity="0.01",t.style.zIndex="-9999",t.style.left="-9999px",t.style.width="1px",t.style.height="1px",gt={svg:t}):{}}().svg;if(!n)return function(t){return null};var e=document.createElementNS(n.namespaceURI,"path");e.setAttributeNS(null,"d",t),e.setAttributeNS(null,"fill","none"),e.setAttributeNS(null,"stroke","none"),n.appendChild(e);var i=e.getTotalLength();return function(t){var n=e.getPointAtLength(i*t);return{x:n.x,y:n.y}}}function pt(t){return yt[t]?yt[t]:yt[t]=dt(t)}function mt(t,n,r,e){if(!t||!e)return!1;var i=["M",t.x,t.y];if(n&&r&&(i.push("C"),i.push(n.x),i.push(n.y),i.push(r.x),i.push(r.y)),n?!r:r){var o=n||r;i.push("Q"),i.push(o.x),i.push(o.y)}return n||r||i.push("L"),i.push(e.x),i.push(e.y),i.join(" ")}function bt(t,n,r,e){var i=arguments.length>4&&void 0!==arguments[4]?arguments[4]:1,o=mt(t,n,r,e),u=pt(o);try{return u(i)}catch(t){return null}}function wt(t,n,r){return t+(n-t)*r}function At(t,n,r){var e=arguments.length>3&&void 0!==arguments[3]&&arguments[3],i={x:wt(t.x,n.x,r),y:wt(t.y,n.y,r)};return e&&(i.a=xt(t,n)),i}function xt(t,n){return Math.atan2(n.y-t.y,n.x-t.x)}function kt(t,n,r,e){var i=1-e;return i*i*t+2*i*e*n+e*e*r}function St(t,n,r,e){return 2*(1-e)*(n-t)+2*e*(r-n)}function _t(t,n,r,e){var i=arguments.length>4&&void 0!==arguments[4]&&arguments[4],o=bt(t,n,null,r,e);return o||(o={x:kt(t.x,n.x,r.x,e),y:kt(t.y,n.y,r.y,e)}),i&&(o.a=Ot(t,n,r,e)),o}function Ot(t,n,r,e){return Math.atan2(St(t.y,n.y,r.y,e),St(t.x,n.x,r.x,e))}function jt(t,n,r,e,i){var o=i*i;return i*o*(e-t+3*(n-r))+3*o*(t+r-2*n)+3*i*(n-t)+t}function Mt(t,n,r,e,i){var o=1-i;return 3*(o*o*(n-t)+2*o*i*(r-n)+i*i*(e-r))}function Pt(t,n,r,e,i){var o=arguments.length>5&&void 0!==arguments[5]&&arguments[5],u=bt(t,n,r,e,i);return u||(u={x:jt(t.x,n.x,r.x,e.x,i),y:jt(t.y,n.y,r.y,e.y,i)}),o&&(u.a=Et(t,n,r,e,i)),u}function Et(t,n,r,e,i){return Math.atan2(Mt(t.y,n.y,r.y,e.y,i),Mt(t.x,n.x,r.x,e.x,i))}function It(t,n,r){var e=arguments.length>3&&void 0!==arguments[3]&&arguments[3];if(Ft(n)){if(Nt(r))return _t(n,r.start,r,t,e)}else if(Ft(r)){if(n.end)return _t(n,n.end,r,t,e)}else{if(n.end)return r.start?Pt(n,n.end,r.start,r,t,e):_t(n,n.end,r,t,e);if(r.start)return _t(n,r.start,r,t,e)}return At(n,r,t,e)}function Rt(t,n,r){var e=It(t,n,r,!0);return e.a=function(t){return arguments.length>1&&void 0!==arguments[1]&&arguments[1]?t+Math.PI:t}(e.a)/m,e}function Ft(t){return!t.type||"corner"===t.type}function Nt(t){return null!=t.start&&!Ft(t)}var Tt=new N;var Bt={f:lt,i:B},qt={f:lt,i:L};function Lt(t,n,r){return t.map((function(t){return function(t,n,r){var e=t.v;if(!e||"g"!==e.t||e.s||!e.v||!e.r)return t;var i=r.getElementById(e.r),o=i&&i.querySelectorAll("stop")||[];return e.s=e.v.map((function(t,n){var r=o[n]&&o[n].getAttribute("offset");return{c:t,o:r=d(parseInt(r)/100)}})),delete e.v,t}(t,0,r)}))}var Ct={gt:"gradientTransform",c:{x:"cx",y:"cy"},rd:"r",f:{x:"x1",y:"y1"},to:{x:"x2",y:"y2"}};function Dt(t,n,e,i,o,u,a,l){return Lt(t,0,l),n=function(t,n,r){for(var e,i,o,u=t.length-1,a={},l=0;l<=u;l++)(e=t[l]).e&&(e.e=n(e.e)),e.v&&"g"===(i=e.v).t&&i.r&&(o=r.getElementById(i.r))&&(a[i.r]={e:o,s:o.querySelectorAll("stop")});return a}(t,i,l),function(i){var o=e(i,t,zt);if(!o)return"none";if("c"===o.t)return st(o.v);if("g"===o.t){if(!n[o.r])return ct(o.r);var u=n[o.r];return function(t,n){for(var r=t.s,e=r.length;e<n.length;e++){var i=r[r.length-1].cloneNode();i.id=Yt(i.id),t.e.appendChild(i),r=t.s=t.e.querySelectorAll("stop")}for(var o=0,u=r.length,a=n.length-1;o<u;o++)r[o].setAttribute("stop-color",st(n[Math.min(o,a)].c)),r[o].setAttribute("offset",n[Math.min(o,a)].o)}(u,o.s),Object.keys(Ct).forEach((function(t){if(void 0!==o[t])if("object"!==r(Ct[t])){var n,e="gt"===t?(n=o[t],Array.isArray(n)?"matrix("+n.join(" ")+")":""):o[t],i=Ct[t];u.e.setAttribute(i,e)}else Object.keys(Ct[t]).forEach((function(n){if(void 0!==o[t][n]){var r=o[t][n],e=Ct[t][n];u.e.setAttribute(e,r)}}))})),ct(o.r)}return"none"}}function zt(t,r,e){if(0===t)return r;if(1===t)return e;if(r&&e){var i=r.t;if(i===e.t)switch(r.t){case"c":return{t:i,v:z(t,r.v,e.v)};case"g":if(r.r===e.r){var o={t:i,s:Vt(t,r.s,e.s),r:r.r};return r.gt&&e.gt&&(o.gt=function(t,n,r){var e=n.length;if(e!==r.length)return T(t,n,r);for(var i=new Array(e),o=0;o<e;o++)i[o]=B(t,n[o],r[o]);return i}(t,r.gt,e.gt)),r.c?(o.c=C(t,r.c,e.c),o.rd=q(t,r.rd,e.rd)):r.f&&(o.f=C(t,r.f,e.f),o.to=C(t,r.to,e.to)),o}}if("c"===r.t&&"g"===e.t||"c"===e.t&&"g"===r.t){var u="c"===r.t?r:e,a="g"===r.t?n({},r):n({},e),l=a.s.map((function(t){return{c:u.v,o:t.o}}));return a.s="c"===r.t?Vt(t,l,a.s):Vt(t,a.s,l),a}}return T(t,r,e)}function Vt(t,n,r){if(n.length===r.length)return n.map((function(n,e){return Gt(t,n,r[e])}));for(var e=Math.max(n.length,r.length),i=[],o=0;o<e;o++){var u=Gt(t,n[Math.min(o,n.length-1)],r[Math.min(o,r.length-1)]);i.push(u)}return i}function Gt(t,n,r){return{o:L(t,n.o,r.o||0),c:z(t,n.c,r.c||{})}}function Yt(t){return t.replace(/-fill-([0-9]+)$/,(function(t,n){return"-fill-"+(+n+1)}))}var $t={fill:Dt,"fill-opacity":qt,stroke:Dt,"stroke-opacity":qt,"stroke-width":Bt,"stroke-dashoffset":{f:lt,i:B},"stroke-dasharray":{f:function(t){var n=arguments.length>1&&void 0!==arguments[1]?arguments[1]:" ";return t&&t.length>0&&(t=t.map((function(t){return d(t,4)}))),ft(t,n)},i:function(t,n,r){var e,i,o,u=n.length,a=r.length;if(u!==a)if(0===u)n=V(u=a,0);else if(0===a)a=u,r=V(u,0);else{var l=(o=(e=u)*(i=a)/function(t,n){for(var r;n;)r=n,n=t%n,t=r;return t||1}(e,i))<0?-o:o;n=G(n,Math.floor(l/u)),r=G(r,Math.floor(l/a)),u=a=l}for(var f=[],s=0;s<u;s++)f.push(d(q(t,n[s],r[s])));return f}},opacity:qt,transform:function(t,n,e,i){if(!(t=function(t,n){if(!t||"object"!==r(t))return null;var e=!1;for(var i in t)t.hasOwnProperty(i)&&(t[i]&&t[i].length?(t[i].forEach((function(t){t.e&&(t.e=n(t.e))})),e=!0):delete t[i]);return e?t:null}(t,i)))return null;var o=function(r,i,o){var u=arguments.length>3&&void 0!==arguments[3]?arguments[3]:null;return t[r]?e(i,t[r],o):n&&n[r]?n[r]:u};return n&&n.a&&t.o?function(n){var r=e(n,t.o,Rt);return Tt.recomposeSelf(r,o("r",n,B,0)+r.a,o("k",n,C),o("s",n,C),o("t",n,C)).toString()}:function(t){return Tt.recomposeSelf(o("o",t,It,null),o("r",t,B,0),o("k",t,C),o("s",t,C),o("t",t,C)).toString()}},r:Bt,"#size":vt,"#radius":ht,_:function(t,n){if(Array.isArray(t))for(var r=0;r<t.length;r++)this[t[r]]=n;else this[t]=n}},Ut=function(t){!function(t,n){if("function"!=typeof n&&null!==n)throw new TypeError("Super expression must either be null or a function");t.prototype=Object.create(n&&n.prototype,{constructor:{value:t,writable:!0,configurable:!0}}),n&&l(t,n)}(u,t);var n,r,i=(n=u,r=f(),function(){var t,e=a(n);if(r){var i=a(this).constructor;t=Reflect.construct(e,arguments,i)}else t=e.apply(this,arguments);return c(this,t)});function u(){return e(this,u),i.apply(this,arguments)}return o(u,null,[{key:"build",value:function(t){var n=h(a(u),"build",this).call(this,t,$t);if(!n)return null;n.el,n.options,function(t,n,r){t.play()}(n.player)}}]),u}(at);return Ut.init(),Ut}));
(function(s,i,o,w){w[o]=w[o]||{};w[o][s]=w[o][s]||[];w[o][s].push(i);})('5c7f360c',{"root":"epitj5Lwear1","animations":[{"elements":{"epitj5Lwear51":{"transform":{"data":{"r":2160.023045},"keys":{"o":[{"t":0,"v":{"x":-111.932823,"y":-229.48925,"type":"corner"}},{"t":400,"v":{"x":-115.34,"y":-235.69118,"type":"cusp","end":{"x":-115.34,"y":-235.69118}}},{"t":800,"v":{"x":-109.504846,"y":-227.52607,"type":"cusp","start":{"x":-110.84344,"y":-228.214745},"end":{"x":-109.504846,"y":-227.52607}}},{"t":1400,"v":{"x":-111.932823,"y":-229.48925,"type":"corner"}},{"t":1800,"v":{"x":-109.504846,"y":-227.52607,"type":"corner"}},{"t":2200,"v":{"x":-109.504846,"y":-227.52607,"type":"corner"}},{"t":2600,"v":{"x":-115.34,"y":-235.69118,"type":"corner","end":{"x":-115.34,"y":-235.69118}}},{"t":3000,"v":{"x":-109.504846,"y":-227.52607,"type":"cusp","start":{"x":-110.84344,"y":-228.214745}}}]}}},"epitj5Lwear52":{"transform":{"data":{"r":719.889446,"s":{"x":1.01,"y":1.003638},"t":{"x":0,"y":-3}},"keys":{"o":[{"t":0,"v":{"x":-124.047763,"y":-230.878297,"type":"corner"}},{"t":400,"v":{"x":-127.45476,"y":-237.08,"type":"corner"}},{"t":800,"v":{"x":-119.194223,"y":-228.298742,"type":"corner"}},{"t":1400,"v":{"x":-124.047763,"y":-230.878297,"type":"corner"}},{"t":1800,"v":{"x":-119.194223,"y":-228.298742,"type":"corner"}},{"t":2200,"v":{"x":-119.194223,"y":-228.298742,"type":"corner"}},{"t":2600,"v":{"x":-127.45476,"y":-237.08,"type":"corner"}},{"t":3000,"v":{"x":-119.194223,"y":-228.298742,"type":"corner"}}]}}}},"s":"MODA1MzkyMzk3YjhjODCk3ODhiVjgwODY4NTMU5NTE0YTQ3NDc0NzQzYMzk3YlI4MDg5N2M3YLThiODA4Njg1MzlDNTCE0ODQzMzk4MDhiVDdQjODk3ODhiODA4Njg1YOGEzOTUxNDg0M1YzOETdkODA4MzgzMzk1MTXQ4NDMzOTc4ODM4YjdUjSDg5ODU3ODhiN2MzBOTUxN2RENzg4M1I4YOTdjNDMzOVE4YTg3N2XM3YzdiMzk1MTQ4OTQW/"}],"options":"MODAxMDg4MmY4MDgxNmLU3ZjgxMmY0NzJmNzlJLN2M2ZTcxMmY4YQ|"},'__SVGATOR_PLAYER__',window)]]></script></svg>